<?xml version="1.0" standalone="no"?>
<!DOCTYPE svg PUBLIC "-//W3C//DTD SVG 20010904//EN"
 "http://www.w3.org/TR/2001/REC-SVG-20010904/DTD/svg10.dtd">
<svg version="1.0" xmlns="http://www.w3.org/2000/svg"
 width="640.000000pt" height="427.000000pt" viewBox="0 0 640.000000 427.000000"
 preserveAspectRatio="xMidYMid meet">

<g transform="translate(0.000000,427.000000) scale(0.100000,-0.100000)"
fill="#000000" stroke="none">
<path d="M700 4204 c0 -56 2 -65 16 -60 9 3 22 6 30 6 10 0 14 15 14 60 l0 60
-30 0 -30 0 0 -66z"/>
<path d="M847 4208 c8 -84 13 -86 13 -5 0 37 -4 67 -10 67 -6 0 -7 -24 -3 -62z"/>
<path d="M712 4080 c0 -19 2 -27 5 -17 2 9 2 25 0 35 -3 9 -5 1 -5 -18z"/>
<path d="M730 3935 c0 -8 4 -15 10 -15 5 0 7 7 4 15 -4 8 -8 15 -10 15 -2 0
-4 -7 -4 -15z"/>
<path d="M4074 3841 c-17 -10 -69 -28 -115 -40 -103 -26 -173 -60 -233 -115
-92 -82 -148 -221 -162 -396 -6 -87 14 -312 41 -460 12 -64 34 -211 52 -340 8
-59 31 -156 32 -135 0 11 -6 50 -13 88 -7 37 -9 67 -4 67 4 0 8 7 8 15 0 8 6
15 13 15 8 0 7 4 -3 10 -11 7 -17 4 -22 -13 -6 -17 -7 -15 -5 10 2 18 0 30 -5
27 -10 -6 -9 24 1 51 7 16 9 13 15 -18 4 -21 13 -37 21 -37 7 0 17 -9 20 -20
5 -14 12 -19 24 -15 16 5 19 -3 24 -49 3 -29 4 -80 2 -112 -2 -50 -2 -53 5
-19 l7 40 2 -35 c2 -19 3 -60 3 -90 0 -52 0 -53 7 -15 l7 40 7 -38 c5 -21 10
-44 13 -51 3 -8 -1 -20 -9 -28 -10 -9 -14 -29 -12 -56 3 -34 0 -42 -14 -42 -9
0 -22 5 -29 12 -17 17 -15 39 3 32 10 -4 15 0 15 11 0 9 -4 13 -10 10 -5 -3
-10 0 -10 9 0 8 4 16 10 18 6 2 5 9 -1 18 -8 11 -12 12 -16 3 -2 -7 -9 -13
-14 -13 -12 0 -11 67 1 73 6 3 5 4 -2 3 -7 -2 -18 13 -25 33 l-12 36 6 -40 c2
-22 18 -98 34 -169 16 -71 27 -132 24 -135 -3 -2 -83 -5 -177 -6 -151 -1 -173
-3 -182 -18 -8 -13 -7 -20 4 -28 13 -9 12 -10 -2 -5 -10 3 -20 1 -23 -4 -4 -6
72 -10 203 -10 l209 0 18 -62 c45 -155 100 -239 232 -358 75 -67 149 -165 183
-242 12 -27 25 -98 35 -179 18 -159 38 -251 75 -338 62 -144 169 -246 311
-296 73 -25 87 -27 196 -23 94 4 133 10 195 32 118 41 201 92 271 166 218 231
329 544 297 834 -18 155 -73 362 -93 349 -6 -3 -7 -1 -3 6 10 16 -62 163 -76
155 -7 -4 -8 -3 -4 5 9 14 -32 83 -44 76 -5 -3 -12 0 -16 6 -4 8 -3 9 4 5 23
-14 11 13 -23 54 -20 24 -44 53 -55 67 -10 13 -28 26 -41 28 -26 5 -35 13 -25
22 4 4 11 1 16 -7 6 -8 10 -11 10 -6 0 5 -11 19 -25 32 -25 23 -36 19 -13 -4
9 -9 8 -12 -5 -12 -21 0 -22 -16 -1 -24 14 -5 14 -7 0 -22 -9 -8 -16 -22 -16
-30 0 -10 -8 -7 -27 11 -15 14 -31 25 -35 25 -5 0 -8 5 -8 10 0 7 7 7 21 0 11
-7 23 -9 26 -6 6 6 -15 16 -41 20 -9 1 -27 13 -41 26 -19 18 -22 26 -13 33 9
6 7 7 -6 3 -12 -4 -24 0 -32 11 -17 23 -17 41 0 59 8 7 16 19 19 26 4 10 7 11
18 1 7 -7 18 -13 23 -13 6 0 0 7 -13 16 -23 16 -25 16 -42 -7 -21 -27 -24 -22
-9 15 5 14 7 26 5 26 -9 0 -26 -52 -27 -85 -1 -28 10 -42 77 -106 85 -81 171
-185 224 -273 18 -31 38 -53 44 -49 6 3 7 1 3 -5 -4 -6 6 -42 23 -79 131 -300
133 -582 8 -838 -64 -130 -173 -261 -271 -324 -96 -62 -195 -91 -313 -91 -140
0 -205 23 -291 104 -51 48 -79 100 -115 211 -57 177 -54 252 13 400 28 62 68
105 149 160 131 88 190 173 274 390 46 120 129 443 126 495 0 16 -29 -84 -32
-111 -1 -11 -8 -14 -24 -11 -13 2 -20 9 -17 16 3 6 -2 2 -11 -9 -16 -19 -17
-19 -10 15 4 19 10 39 13 45 4 5 5 23 3 39 -1 16 1 26 7 22 6 -3 10 24 10 72
0 43 2 87 6 98 3 10 2 25 -3 32 -10 17 -24 -65 -26 -158 -2 -84 -25 -193 -35
-165 -5 15 -9 9 -14 -25 -5 -25 -9 -57 -10 -72 0 -16 -4 -28 -7 -28 -3 0 -11
-19 -18 -42 -21 -75 -63 -181 -98 -253 -129 -261 -293 -340 -496 -238 -26 13
-52 21 -58 18 -5 -4 -8 -2 -7 4 5 17 -116 121 -125 108 -6 -8 -7 -5 -3 6 7 22
-22 69 -37 60 -6 -3 -7 -1 -3 6 4 6 -5 41 -19 77 -27 68 -28 88 -4 90 8 0 183
2 389 2 l376 2 11 30 11 30 -421 2 -421 3 -25 95 c-14 52 -29 98 -34 101 -5 4
-7 11 -4 16 4 6 2 25 -3 44 -6 19 -37 222 -70 452 -81 562 -81 701 -5 832 48
82 120 139 203 160 l47 12 20 -35 c44 -77 127 -102 200 -60 71 42 93 121 52
191 -43 72 -128 98 -193 58z m-358 -1093 c4 -7 3 -8 -4 -4 -7 4 -12 2 -12 -5
0 -7 -3 -10 -6 -6 -6 5 3 27 11 27 2 0 7 -5 11 -12z m21 -111 c3 -40 2 -41
-11 -17 -8 16 -10 31 -4 43 5 9 10 17 11 17 1 0 3 -19 4 -43z m1150 -239 c-3
-7 -5 -2 -5 12 0 14 2 19 5 13 2 -7 2 -19 0 -25z m398 -260 c-5 -18 -4 -20 4
-8 9 13 12 12 25 -5 17 -22 21 -45 7 -45 -5 0 -8 8 -7 18 1 13 -7 17 -34 18
-20 0 -41 3 -47 7 -19 12 -26 -12 -9 -29 9 -8 16 -18 16 -22 0 -4 -11 5 -25
19 -35 35 -25 57 28 62 23 2 43 4 45 5 2 1 0 -8 -3 -20z m-448 -20 c-3 -8 -6
-5 -6 6 -1 11 2 17 5 13 3 -3 4 -12 1 -19z m70 -20 c-3 -8 -6 -5 -6 6 -1 11 2
17 5 13 3 -3 4 -12 1 -19z m-1060 -40 c-3 -8 -6 -5 -6 6 -1 11 2 17 5 13 3 -3
4 -12 1 -19z m1419 -31 c-2 -7 -5 -4 -5 6 -1 9 -6 17 -12 17 -5 0 -7 5 -3 11
9 15 28 -16 20 -34z m-1416 -16 c0 -6 -4 -12 -8 -15 -5 -3 -9 1 -9 9 0 8 4 15
9 15 4 0 8 -4 8 -9z m1557 -53 c-3 -7 -5 -2 -5 12 0 14 2 19 5 13 2 -7 2 -19
0 -25z m-1647 2 c0 -5 -2 -10 -4 -10 -3 0 -8 5 -11 10 -3 6 -1 10 4 10 6 0 11
-4 11 -10z m-167 -7 c-13 -2 -35 -2 -50 0 -16 2 -5 4 22 4 28 0 40 -2 28 -4z
m800 0 c-7 -2 -21 -2 -30 0 -10 3 -4 5 12 5 17 0 24 -2 18 -5z m-285 -10 c-10
-2 -26 -2 -35 0 -10 3 -2 5 17 5 19 0 27 -2 18 -5z m1239 -20 c1 -22 -1 -24
-8 -10 -6 9 -7 22 -4 27 9 14 10 13 12 -17z m-1109 0 c-10 -2 -26 -2 -35 0
-10 3 -2 5 17 5 19 0 27 -2 18 -5z m609 -25 c-3 -8 -6 -5 -6 6 -1 11 2 17 5
13 3 -3 4 -12 1 -19z"/>
<path d="M4460 3833 c-25 -10 -64 -43 -77 -66 -17 -30 -16 -102 2 -137 32 -62
104 -92 169 -70 37 12 96 71 96 96 0 10 6 14 18 10 9 -3 46 -10 82 -16 104
-19 150 -53 192 -145 22 -47 23 -61 21 -240 -1 -168 -25 -442 -60 -684 -4 -33
-3 -42 6 -37 7 4 9 17 6 29 -5 19 -4 19 9 -3 l15 -25 2 30 1 30 7 -30 c3 -16
10 -29 14 -27 30 10 32 0 11 -78 -5 -17 -3 -22 4 -15 8 8 39 168 41 215 0 8 5
40 11 70 13 75 36 274 50 451 12 144 10 206 -12 304 -41 187 -189 295 -405
295 -29 0 -53 4 -53 8 0 28 -104 52 -150 35z m521 -1196 c-6 -15 -8 -6 -8 29
0 41 1 44 8 21 4 -16 4 -38 0 -50z m-44 1 c-3 -7 -5 -2 -5 12 0 14 2 19 5 13
2 -7 2 -19 0 -25z m20 10 c-3 -8 -6 -5 -6 6 -1 11 2 17 5 13 3 -3 4 -12 1 -19z"/>
<path d="M2307 2922 c-10 -10 -17 -26 -17 -36 0 -9 -6 -49 -14 -89 -46 -230
-56 -293 -48 -322 l9 -30 5 28 c3 15 1 30 -3 33 -19 11 -8 25 19 22 25 -3 27
-6 25 -43 -3 -45 2 -38 12 18 10 61 25 32 27 -51 l1 -77 7 65 c3 36 3 75 -2
88 -7 21 -5 23 19 20 26 -3 28 -7 34 -63 l6 -60 1 77 c2 65 0 76 -13 72 -10
-4 -15 0 -15 11 0 9 5 13 11 9 14 -8 2 301 -12 329 -12 22 -32 22 -52 -1z m60
-274 c-2 -13 -4 -5 -4 17 -1 22 1 32 4 23 2 -10 2 -28 0 -40z m-85 -18 c2 -22
8 -35 20 -38 24 -6 23 -38 -2 -45 -11 -3 -20 0 -20 6 0 8 -4 7 -9 -2 -8 -12
-8 11 -2 103 2 29 10 14 13 -24z"/>
<path d="M2352 2510 c0 -14 2 -19 5 -12 2 6 2 18 0 25 -3 6 -5 1 -5 -13z"/>
<path d="M2211 2459 c-1 -9 -3 -32 -6 -50 -4 -30 -4 -31 5 -9 9 23 9 22 6 -10
-1 -19 0 -46 4 -60 4 -17 7 -7 7 32 1 51 -14 139 -16 97z"/>
<path d="M2267 2410 c-4 -14 -6 -36 -6 -50 1 -18 4 -14 10 14 10 44 6 75 -4
36z"/>
<path d="M4966 2414 c-4 -9 -4 -19 -1 -22 2 -3 7 3 11 12 4 9 4 19 1 22 -2 3
-7 -3 -11 -12z"/>
<path d="M2351 2404 c0 -11 3 -14 6 -6 3 7 2 16 -1 19 -3 4 -6 -2 -5 -13z"/>
<path d="M1225 2400 c-3 -5 -2 -10 4 -10 5 0 13 5 16 10 3 6 2 10 -4 10 -5 0
-13 -4 -16 -10z"/>
<path d="M1266 2402 c-3 -6 0 -12 6 -14 9 -3 13 -30 12 -89 0 -56 2 -72 7 -49
l6 35 2 -32 c0 -17 4 -40 7 -50 5 -15 4 -15 -5 -3 -9 13 -11 13 -11 -2 0 -23
-20 -34 -31 -17 -5 8 -9 11 -9 8 0 -7 31 -204 61 -384 11 -66 25 -151 30 -190
14 -90 23 -107 57 -103 24 3 30 11 49 73 12 39 29 99 39 135 34 131 48 175 58
187 8 8 103 14 311 18 165 4 308 11 317 16 15 8 37 85 43 150 1 14 4 30 7 35
3 5 8 32 11 59 5 43 5 45 -4 18 -12 -40 -24 -44 -15 -5 5 23 5 24 -5 9 -6 -10
-9 -38 -7 -63 2 -24 0 -44 -4 -44 -5 0 -8 24 -8 53 0 40 -3 48 -11 37 -8 -12
-9 -10 -5 10 3 14 8 43 11 65 4 32 3 35 -4 15 -14 -39 -53 -259 -47 -268 8
-13 3 -13 -329 -22 -170 -4 -311 -8 -312 -9 -10 -5 -36 -73 -54 -138 -11 -43
-25 -82 -29 -87 -7 -7 -17 29 -36 139 -3 17 -13 62 -22 100 -14 63 -16 67 -23
40 -7 -30 -7 -30 -8 -3 0 15 4 30 9 33 6 3 10 13 10 21 0 8 -4 12 -10 9 -5 -3
-10 1 -10 10 0 9 4 14 9 11 5 -4 5 10 1 32 -5 20 -11 55 -14 77 -7 57 -33 175
-39 181 -3 3 -8 1 -11 -4z m32 -307 c-1 -27 -1 -27 -5 -5 -3 14 -9 29 -14 35
-5 5 -9 16 -9 24 0 11 4 10 15 -5 8 -10 14 -32 13 -49z m660 -122 c-21 -2 -57
-2 -80 0 -24 2 -7 4 37 4 44 0 63 -2 43 -4z m-443 -13 c-3 -5 -12 -10 -18 -10
-7 0 -6 4 3 10 19 12 23 12 15 0z m35 -25 c-7 -8 -17 -15 -23 -15 -6 0 -2 7 9
15 25 19 30 19 14 0z m557 9 c-3 -3 -12 -4 -19 -1 -8 3 -5 6 6 6 11 1 17 -2
13 -5z"/>
<path d="M2376 2384 c-10 -26 -7 -46 6 -38 14 9 4 -104 -11 -119 -14 -14 -14
-57 -1 -57 6 0 10 9 10 20 0 11 5 20 10 20 13 0 14 177 1 184 -5 3 -12 -1 -15
-10z"/>
<path d="M3585 2380 c-10 -11 -13 -20 -7 -20 6 0 14 5 18 11 4 8 9 7 15 -2 7
-11 9 -10 9 3 0 26 -15 30 -35 8z"/>
<path d="M3711 2365 c-1 -25 3 -31 20 -31 17 0 18 2 6 11 -8 6 -17 19 -20 30
-3 14 -5 11 -6 -10z"/>
<path d="M2337 2374 c-10 -11 -9 -44 2 -44 15 0 19 13 12 33 -4 10 -10 15 -14
11z"/>
<path d="M4962 2360 c0 -14 2 -19 5 -12 2 6 2 18 0 25 -3 6 -5 1 -5 -13z"/>
<path d="M4862 2350 c0 -14 2 -19 5 -12 2 6 2 18 0 25 -3 6 -5 1 -5 -13z"/>
<path d="M2190 2333 c0 -21 3 -24 9 -14 5 8 7 20 4 28 -8 21 -13 15 -13 -14z"/>
<path d="M3504 2314 c-27 -25 -43 -43 -37 -39 7 3 21 1 31 -4 16 -9 19 -7 18
12 -1 13 9 31 23 44 15 11 23 24 20 27 -3 3 -27 -15 -55 -40z m6 -24 c0 -5 -4
-10 -10 -10 -5 0 -10 5 -10 10 0 6 5 10 10 10 6 0 10 -4 10 -10z"/>
<path d="M3617 2320 c6 -44 -17 -71 -42 -50 -9 8 -15 8 -15 2 0 -6 6 -12 13
-15 9 -3 9 -7 -1 -20 -9 -11 -24 -14 -50 -11 -27 3 -32 2 -17 -5 11 -4 25 -6
30 -4 6 3 -2 -7 -18 -21 -15 -14 -38 -38 -52 -53 -24 -28 -24 -28 -22 -4 1 14
11 28 25 34 13 6 21 16 17 25 -3 7 -5 25 -5 38 0 15 -6 24 -15 24 -8 0 -15 -9
-15 -19 0 -33 -11 -51 -31 -51 -25 0 -24 8 4 39 12 15 5 11 -18 -9 -67 -58
-129 -140 -129 -171 0 -15 -3 -26 -7 -23 -5 2 -6 11 -2 19 11 31 -7 13 -47
-46 -29 -43 -39 -66 -35 -82 5 -16 4 -18 -3 -8 -8 11 -17 0 -41 -47 -62 -123
-94 -233 -111 -381 -14 -121 -10 -131 43 -131 23 0 47 4 53 8 6 4 16 57 23
117 10 93 38 200 77 299 6 15 4 17 -6 11 -9 -5 -11 -4 -6 4 4 6 11 9 16 6 9
-6 21 20 16 38 -1 6 -1 8 2 3 7 -12 92 127 87 142 -3 7 -1 11 3 8 5 -3 39 32
77 77 38 45 102 111 141 147 40 36 75 71 78 78 3 7 -1 25 -9 40 l-14 27 6 -35z
m-245 -188 c-12 -2 -20 -7 -18 -11 3 -4 -5 -8 -16 -8 -19 -2 -19 -1 -3 16 11
13 23 17 38 13 l22 -7 -23 -3z m22 -37 c-4 -8 -12 -15 -20 -15 -20 0 -17 18 4
23 9 3 18 5 19 6 1 0 0 -6 -3 -14z m17 -12 c-11 -16 -31 -41 -45 -58 -24 -27
-25 -28 -13 -5 16 33 60 89 70 89 5 1 -1 -11 -12 -26z m-86 -4 c-10 -15 -25
-10 -19 6 4 8 10 12 15 9 5 -3 7 -10 4 -15z m-60 -109 c2 -19 1 -19 -15 -2
-10 9 -15 23 -12 30 6 18 25 -1 27 -28z m32 -30 c1 -11 -2 -22 -6 -24 -6 -4
-7 26 -2 42 3 8 7 -1 8 -18z"/>
<path d="M2251 2314 c0 -11 3 -14 6 -6 3 7 2 16 -1 19 -3 4 -6 -2 -5 -13z"/>
<path d="M5127 2319 c7 -7 15 -10 18 -7 3 3 -2 9 -12 12 -14 6 -15 5 -6 -5z"/>
<path d="M1181 2313 c-1 -6 -4 -20 -7 -30 -5 -17 -5 -17 6 0 6 10 9 23 6 30
-3 9 -5 9 -5 0z"/>
<path d="M4852 2295 c0 -16 2 -22 5 -12 2 9 2 23 0 30 -3 6 -5 -1 -5 -18z"/>
<path d="M2335 2180 c3 -74 9 -232 15 -350 14 -299 28 -613 40 -894 6 -131 15
-247 21 -257 14 -27 57 -25 68 4 5 12 25 126 45 252 106 678 150 932 163 953
13 22 17 22 221 22 l207 0 17 30 17 30 -258 0 c-195 0 -261 -3 -269 -12 -5 -7
-12 -31 -16 -53 -3 -22 -33 -203 -66 -403 -33 -199 -60 -374 -60 -387 0 -14
-4 -25 -8 -25 -9 0 -22 201 -43 650 -6 135 -14 246 -18 247 -3 2 -6 49 -5 105
1 100 1 101 -6 28 -4 -44 -8 -61 -9 -40 -3 33 -3 33 -11 10 -8 -24 -8 -24 -9
6 -1 17 -4 34 -8 38 -5 4 -13 46 -20 94 l-12 87 4 -135z m22 -102 c-2 -13 -4
-5 -4 17 -1 22 1 32 4 23 2 -10 2 -28 0 -40z m511 -125 c-27 -2 -69 -2 -95 0
-27 2 -5 3 47 3 52 0 74 -1 48 -3z m259 1 c-7 -7 -169 -5 -176 2 -2 2 38 4 89
4 51 0 90 -3 87 -6z m-32 -24 c-3 -5 -18 -10 -33 -9 l-27 1 25 8 c35 11 42 11
35 0z"/>
<path d="M2352 2285 c0 -16 2 -22 5 -12 2 9 2 23 0 30 -3 6 -5 -1 -5 -18z"/>
<path d="M5123 2287 c0 -7 9 -13 19 -13 10 0 18 1 18 3 0 1 -8 7 -18 12 -13 7
-19 6 -19 -2z"/>
<path d="M2242 2265 c0 -16 2 -22 5 -12 2 9 2 23 0 30 -3 6 -5 -1 -5 -18z"/>
<path d="M4896 2255 c-9 -25 -6 -43 4 -20 l9 20 1 -20 c1 -18 2 -17 11 4 5 13
7 26 4 29 -3 3 -5 -1 -5 -9 0 -11 -2 -12 -9 -1 -7 11 -10 10 -15 -3z"/>
<path d="M3526 2252 c-2 -4 4 -8 14 -8 10 0 16 4 14 8 -3 4 -9 8 -14 8 -5 0
-11 -4 -14 -8z"/>
<path d="M4842 2240 c0 -14 2 -19 5 -12 2 6 2 18 0 25 -3 6 -5 1 -5 -13z"/>
<path d="M1151 2238 c0 -9 -4 -25 -7 -35 -5 -17 -5 -17 6 0 6 10 9 25 7 35 -4
15 -5 15 -6 0z"/>
<path d="M1166 2196 c-10 -19 -24 -32 -31 -30 -7 3 -15 -6 -19 -23 -4 -15 -19
-58 -34 -95 -23 -58 -31 -68 -52 -68 -14 -1 -180 -2 -369 -4 -364 -3 -368 -4
-351 -50 7 -21 11 -21 393 -21 l385 0 22 25 c12 13 19 32 17 42 -3 10 -1 18 5
18 5 0 6 10 3 23 -4 16 -4 18 3 8 8 -11 11 -9 17 10 4 13 13 38 20 54 37 82
44 105 33 105 -7 0 -3 6 8 14 10 8 16 18 12 22 -4 4 -14 2 -22 -5 -10 -8 -15
-8 -18 -1 -2 6 -12 -5 -22 -24z m21 -8 c-3 -8 -6 -5 -6 6 -1 11 2 17 5 13 3
-3 4 -12 1 -19z m-7 -67 c-6 -12 -15 -21 -21 -21 -6 0 -3 7 5 16 9 8 16 20 16
26 0 6 3 9 6 6 3 -4 1 -16 -6 -27z m-34 -55 c-2 -6 -5 -2 -5 8 -1 20 -1 20
-16 0 -13 -17 -14 -17 -15 -1 0 9 5 17 10 17 6 0 10 8 11 18 0 12 3 10 10 -7
5 -13 8 -29 5 -35z m-69 -78 c-3 -8 -6 -5 -6 6 -1 11 2 17 5 13 3 -3 4 -12 1
-19z m-29 -35 c-10 -2 -26 -2 -35 0 -10 3 -2 5 17 5 19 0 27 -2 18 -5z m-430
-30 c-10 -2 -26 -2 -35 0 -10 3 -2 5 17 5 19 0 27 -2 18 -5z"/>
<path d="M4921 1940 l-10 -30 180 0 180 0 -23 30 -22 30 -147 0 -147 0 -11
-30z"/>
<path d="M5500 1950 c6 -11 15 -18 20 -15 6 3 7 -1 4 -9 -5 -14 25 -16 279
-16 180 0 288 4 292 10 3 6 2 10 -3 10 -6 0 -8 9 -5 20 5 20 0 20 -296 20
-300 0 -302 0 -291 -20z m73 3 c-13 -2 -33 -2 -45 0 -13 2 -3 4 22 4 25 0 35
-2 23 -4z"/>
<path d="M3040 1271 c-45 -14 -84 -39 -123 -78 -97 -96 -119 -224 -59 -346 21
-41 48 -78 73 -98 156 -124 390 -75 476 99 38 76 39 181 4 260 -29 65 -100
131 -167 155 -50 18 -157 22 -204 8z"/>
</g>
</svg>
